<?xml version="1.0" encoding="utf-8"?>
<!-- Generator: Adobe Illustrator 16.0.0, SVG Export Plug-In . SVG Version: 6.00 Build 0)  -->
<!DOCTYPE svg PUBLIC "-//W3C//DTD SVG 1.1//EN" "http://www.w3.org/Graphics/SVG/1.1/DTD/svg11.dtd">
<svg version="1.1" id="图层_1" xmlns="http://www.w3.org/2000/svg" xmlns:xlink="http://www.w3.org/1999/xlink" x="0px" y="0px"
	 width="200px" height="200px" viewBox="0 0 200 200" enable-background="new 0 0 200 200" xml:space="preserve">
<path fill="#595BB3" d="M14,100.5C14,52.728,52.728,14,100.5,14S187,52.728,187,100.5S148.272,187,100.5,187l0,0
	C52.75,186.945,14.055,148.25,14,100.5z M173.048,100.5c0-40.067-32.48-72.548-72.548-72.548S27.952,60.433,27.952,100.5
	s32.48,72.548,72.548,72.548C140.549,173.003,173.003,140.549,173.048,100.5z M54.689,108.2c-3.891-3.929-3.874-10.264,0.038-14.171
	l31.1-30.984c2.689-2.758,7.106-2.814,9.865-0.125c2.758,2.69,2.814,7.106,0.125,9.865c-0.047,0.048-0.095,0.096-0.144,0.143
	L74.728,93.8h69.564c3.853-0.001,6.978,3.12,6.979,6.974c0.002,3.852-3.12,6.977-6.973,6.979c-0.002,0-0.005,0-0.007,0H73.908
	L96.4,130.384c2.716,2.733,2.701,7.151-0.033,9.867c-2.734,2.716-7.151,2.7-9.867-0.033L54.689,108.2z"/>
</svg>
